<mxfile host="app.diagrams.net" agent="Mozilla/5.0 (Windows NT 10.0; Win64; x64) AppleWebKit/537.36 (KHTML, like Gecko) Chrome/127.0.0.0 Safari/537.36 OPR/113.0.0.0" version="24.7.17">
  <diagram name="Page-1" id="RHXMkg8_H6TQGiqPr1Bk">
    <mxGraphModel dx="1180" dy="775" grid="1" gridSize="10" guides="1" tooltips="1" connect="1" arrows="1" fold="1" page="1" pageScale="1" pageWidth="850" pageHeight="1100" math="0" shadow="0">
      <root>
        <mxCell id="0" />
        <mxCell id="1" parent="0" />
        <mxCell id="zv_h5Y6OcpjjRqXLdyc9-14" value="&lt;h2&gt;Organization Boundary&lt;/h2&gt;" style="rounded=0;whiteSpace=wrap;html=1;align=left;verticalAlign=top;labelPosition=center;verticalLabelPosition=middle;spacing=2;spacingLeft=0;spacingBottom=0;spacingTop=-17;" parent="1" vertex="1">
          <mxGeometry x="159" y="150" width="610" height="282" as="geometry" />
        </mxCell>
        <mxCell id="zv_h5Y6OcpjjRqXLdyc9-17" value="" style="group;textShadow=1;" parent="1" vertex="1" connectable="0">
          <mxGeometry x="189" y="191" width="130" height="100" as="geometry" />
        </mxCell>
        <mxCell id="zv_h5Y6OcpjjRqXLdyc9-18" value="&lt;h3&gt;Model UI w/ RAG&lt;/h3&gt;" style="rounded=0;whiteSpace=wrap;html=1;align=left;verticalAlign=top;labelPosition=center;verticalLabelPosition=middle;spacing=2;spacingLeft=0;spacingBottom=0;spacingTop=-17;fillColor=#d5e8d4;strokeColor=#82b366;" parent="zv_h5Y6OcpjjRqXLdyc9-17" vertex="1">
          <mxGeometry width="130" height="100" as="geometry" />
        </mxCell>
        <mxCell id="zv_h5Y6OcpjjRqXLdyc9-19" value="" style="sketch=0;aspect=fixed;pointerEvents=1;shadow=0;dashed=0;html=1;strokeColor=none;labelPosition=center;verticalLabelPosition=bottom;verticalAlign=top;align=center;fillColor=#00188D;shape=mxgraph.mscae.enterprise.app_generic" parent="zv_h5Y6OcpjjRqXLdyc9-17" vertex="1">
          <mxGeometry x="40" y="30.5" width="50" height="39" as="geometry" />
        </mxCell>
        <mxCell id="zv_h5Y6OcpjjRqXLdyc9-26" value="" style="group;textShadow=1;" parent="1" vertex="1" connectable="0">
          <mxGeometry x="615" y="41" width="120" height="360" as="geometry" />
        </mxCell>
        <mxCell id="zv_h5Y6OcpjjRqXLdyc9-25" value="&lt;h3&gt;Private Blockchain&lt;/h3&gt;" style="rounded=0;whiteSpace=wrap;html=1;fillColor=#e1d5e7;strokeColor=#9673a6;verticalAlign=top;align=left;spacingTop=-17;" parent="zv_h5Y6OcpjjRqXLdyc9-26" vertex="1">
          <mxGeometry y="130" width="120" height="120" as="geometry" />
        </mxCell>
        <mxCell id="KIqIY7wPr9Du4U6m_4qA-6" value="" style="sketch=0;points=[[0,0,0],[0.25,0,0],[0.5,0,0],[0.75,0,0],[1,0,0],[0,1,0],[0.25,1,0],[0.5,1,0],[0.75,1,0],[1,1,0],[0,0.25,0],[0,0.5,0],[0,0.75,0],[1,0.25,0],[1,0.5,0],[1,0.75,0]];outlineConnect=0;fontColor=#232F3E;fillColor=#ED7100;strokeColor=#ffffff;dashed=0;verticalLabelPosition=bottom;verticalAlign=top;align=center;html=1;fontSize=12;fontStyle=0;aspect=fixed;shape=mxgraph.aws4.resourceIcon;resIcon=mxgraph.aws4.blockchain;" parent="zv_h5Y6OcpjjRqXLdyc9-26" vertex="1">
          <mxGeometry x="35" y="172.5" width="50" height="50" as="geometry" />
        </mxCell>
        <mxCell id="KIqIY7wPr9Du4U6m_4qA-10" value="Sends Prompt To&amp;nbsp;" style="edgeStyle=orthogonalEdgeStyle;rounded=0;orthogonalLoop=1;jettySize=auto;html=1;exitX=0.91;exitY=0.03;exitDx=0;exitDy=0;exitPerimeter=0;entryX=0;entryY=0.32;entryDx=0;entryDy=0;entryPerimeter=0;" parent="1" source="KIqIY7wPr9Du4U6m_4qA-2" target="zv_h5Y6OcpjjRqXLdyc9-18" edge="1">
          <mxGeometry relative="1" as="geometry">
            <mxPoint x="76" y="241" as="sourcePoint" />
          </mxGeometry>
        </mxCell>
        <mxCell id="KIqIY7wPr9Du4U6m_4qA-2" value="" style="sketch=0;aspect=fixed;pointerEvents=1;shadow=0;dashed=0;html=1;strokeColor=none;labelPosition=center;verticalLabelPosition=bottom;verticalAlign=top;align=center;fillColor=#00188D;shape=mxgraph.mscae.enterprise.client_application" parent="1" vertex="1">
          <mxGeometry x="20" y="220" width="57.81" height="37" as="geometry" />
        </mxCell>
        <mxCell id="KIqIY7wPr9Du4U6m_4qA-8" value="Retrieves Corpus From" style="edgeStyle=orthogonalEdgeStyle;rounded=0;orthogonalLoop=1;jettySize=auto;html=1;exitX=1;exitY=0.5;exitDx=0;exitDy=0;" parent="1" source="zv_h5Y6OcpjjRqXLdyc9-18" edge="1">
          <mxGeometry relative="1" as="geometry">
            <mxPoint x="615" y="238" as="targetPoint" />
          </mxGeometry>
        </mxCell>
        <mxCell id="KIqIY7wPr9Du4U6m_4qA-3" value="" style="group;textShadow=1;" parent="1" vertex="1" connectable="0">
          <mxGeometry x="378" y="308" width="130" height="100" as="geometry" />
        </mxCell>
        <mxCell id="KIqIY7wPr9Du4U6m_4qA-4" value="&lt;h3&gt;Generative Model&lt;/h3&gt;" style="rounded=0;whiteSpace=wrap;html=1;align=left;verticalAlign=top;labelPosition=center;verticalLabelPosition=middle;spacing=2;spacingLeft=0;spacingBottom=0;spacingTop=-17;fillColor=#f8cecc;strokeColor=#b85450;" parent="KIqIY7wPr9Du4U6m_4qA-3" vertex="1">
          <mxGeometry width="130" height="100" as="geometry" />
        </mxCell>
        <mxCell id="KIqIY7wPr9Du4U6m_4qA-7" value="" style="sketch=0;outlineConnect=0;fontColor=#232F3E;gradientColor=none;fillColor=#01A88D;strokeColor=none;dashed=0;verticalLabelPosition=bottom;verticalAlign=top;align=center;html=1;fontSize=12;fontStyle=0;aspect=fixed;pointerEvents=1;shape=mxgraph.aws4.sagemaker_model;" parent="KIqIY7wPr9Du4U6m_4qA-3" vertex="1">
          <mxGeometry x="36" y="30" width="58" height="58" as="geometry" />
        </mxCell>
        <mxCell id="KIqIY7wPr9Du4U6m_4qA-9" value="Sends Prompt w/ Context To" style="edgeStyle=orthogonalEdgeStyle;rounded=0;orthogonalLoop=1;jettySize=auto;html=1;exitX=0.5;exitY=1;exitDx=0;exitDy=0;entryX=0;entryY=0.5;entryDx=0;entryDy=0;" parent="1" source="zv_h5Y6OcpjjRqXLdyc9-18" target="KIqIY7wPr9Du4U6m_4qA-4" edge="1">
          <mxGeometry relative="1" as="geometry" />
        </mxCell>
        <mxCell id="KIqIY7wPr9Du4U6m_4qA-14" style="edgeStyle=orthogonalEdgeStyle;rounded=0;orthogonalLoop=1;jettySize=auto;html=1;exitX=0.5;exitY=0;exitDx=0;exitDy=0;entryX=1;entryY=0.75;entryDx=0;entryDy=0;" parent="1" source="KIqIY7wPr9Du4U6m_4qA-4" target="zv_h5Y6OcpjjRqXLdyc9-18" edge="1">
          <mxGeometry relative="1" as="geometry" />
        </mxCell>
        <mxCell id="KIqIY7wPr9Du4U6m_4qA-15" value="Returns Generated Content" style="edgeLabel;html=1;align=center;verticalAlign=middle;resizable=0;points=[];" parent="KIqIY7wPr9Du4U6m_4qA-14" vertex="1" connectable="0">
          <mxGeometry x="-0.1486" y="3" relative="1" as="geometry">
            <mxPoint as="offset" />
          </mxGeometry>
        </mxCell>
        <mxCell id="KIqIY7wPr9Du4U6m_4qA-16" style="edgeStyle=orthogonalEdgeStyle;rounded=0;orthogonalLoop=1;jettySize=auto;html=1;exitX=-0.036;exitY=0.573;exitDx=0;exitDy=0;entryX=0.974;entryY=0.766;entryDx=0;entryDy=0;entryPerimeter=0;exitPerimeter=0;" parent="1" source="zv_h5Y6OcpjjRqXLdyc9-18" target="KIqIY7wPr9Du4U6m_4qA-2" edge="1">
          <mxGeometry relative="1" as="geometry" />
        </mxCell>
        <mxCell id="KIqIY7wPr9Du4U6m_4qA-17" value="Returns Content" style="edgeLabel;html=1;align=center;verticalAlign=middle;resizable=0;points=[];" parent="KIqIY7wPr9Du4U6m_4qA-16" vertex="1" connectable="0">
          <mxGeometry x="0.0922" y="-1" relative="1" as="geometry">
            <mxPoint x="9" y="-2" as="offset" />
          </mxGeometry>
        </mxCell>
      </root>
    </mxGraphModel>
  </diagram>
</mxfile>
